<?xml version="1.0" encoding="UTF-8"?>
<svg xmlns="http://www.w3.org/2000/svg" height="3.175mm" width="70.2564mm"><g style="fill:black; stroke:none"><rect height="3.175mm" width="0.508mm" x="5.08mm" y="0mm"/><rect height="3.175mm" width="0.508mm" x="6.2484mm" y="0mm"/><rect height="3.175mm" width="0.508mm" x="7.4168mm" y="0mm"/><rect height="1.27mm" width="0.508mm" x="8.5852mm" y="1.905mm"/><rect height="1.27mm" width="0.508mm" x="9.7536mm" y="1.905mm"/><rect height="1.27mm" width="0.508mm" x="10.922mm" y="1.905mm"/><rect height="1.27mm" width="0.508mm" x="12.0904mm" y="1.905mm"/><rect height="1.27mm" width="0.508mm" x="13.2588mm" y="1.905mm"/><rect height="1.27mm" width="0.508mm" x="14.4272mm" y="1.905mm"/><rect height="3.175mm" width="0.508mm" x="15.5956mm" y="0mm"/><rect height="3.175mm" width="0.508mm" x="16.764mm" y="0mm"/><rect height="1.27mm" width="0.508mm" x="17.9324mm" y="1.905mm"/><rect height="1.27mm" width="0.508mm" x="19.1008mm" y="1.905mm"/><rect height="3.175mm" width="0.508mm" x="20.2692mm" y="0mm"/><rect height="1.27mm" width="0.508mm" x="21.4376mm" y="1.905mm"/><rect height="3.175mm" width="0.508mm" x="22.606mm" y="0mm"/><rect height="1.27mm" width="0.508mm" x="23.7744mm" y="1.905mm"/><rect height="1.27mm" width="0.508mm" x="24.9428mm" y="1.905mm"/><rect height="3.175mm" width="0.508mm" x="26.1112mm" y="0mm"/><rect height="3.175mm" width="0.508mm" x="27.2796mm" y="0mm"/><rect height="1.27mm" width="0.508mm" x="28.448mm" y="1.905mm"/><rect height="1.27mm" width="0.508mm" x="29.6164mm" y="1.905mm"/><rect height="3.175mm" width="0.508mm" x="30.7848mm" y="0mm"/><rect height="1.27mm" width="0.508mm" x="31.9532mm" y="1.905mm"/><rect height="1.27mm" width="0.508mm" x="33.1216mm" y="1.905mm"/><rect height="3.175mm" width="0.508mm" x="34.29mm" y="0mm"/><rect height="1.27mm" width="0.508mm" x="35.4584mm" y="1.905mm"/><rect height="3.175mm" width="0.508mm" x="36.6268mm" y="0mm"/><rect height="1.27mm" width="0.508mm" x="37.7952mm" y="1.905mm"/><rect height="3.175mm" width="0.508mm" x="38.9636mm" y="0mm"/><rect height="1.27mm" width="0.508mm" x="40.132mm" y="1.905mm"/><rect height="1.27mm" width="0.508mm" x="41.3004mm" y="1.905mm"/><rect height="3.175mm" width="0.508mm" x="42.4688mm" y="0mm"/><rect height="3.175mm" width="0.508mm" x="43.6372mm" y="0mm"/><rect height="1.27mm" width="0.508mm" x="44.8056mm" y="1.905mm"/><rect height="1.27mm" width="0.508mm" x="45.974mm" y="1.905mm"/><rect height="3.175mm" width="0.508mm" x="47.1424mm" y="0mm"/><rect height="1.27mm" width="0.508mm" x="48.3108mm" y="1.905mm"/><rect height="1.27mm" width="0.508mm" x="49.4792mm" y="1.905mm"/><rect height="1.27mm" width="0.508mm" x="50.6476mm" y="1.905mm"/><rect height="3.175mm" width="0.508mm" x="51.816mm" y="0mm"/><rect height="3.175mm" width="0.508mm" x="52.9844mm" y="0mm"/><rect height="1.27mm" width="0.508mm" x="54.1528mm" y="1.905mm"/><rect height="1.27mm" width="0.508mm" x="55.3212mm" y="1.905mm"/><rect height="3.175mm" width="0.508mm" x="56.4896mm" y="0mm"/><rect height="1.27mm" width="0.508mm" x="57.658mm" y="1.905mm"/><rect height="3.175mm" width="0.508mm" x="58.8264mm" y="0mm"/><rect height="1.27mm" width="0.508mm" x="59.9948mm" y="1.905mm"/><rect height="3.175mm" width="0.508mm" x="61.1632mm" y="0mm"/><rect height="1.27mm" width="0.508mm" x="62.3316mm" y="1.905mm"/><rect height="1.27mm" width="0.508mm" x="63.5mm" y="1.905mm"/><rect height="3.175mm" width="0.508mm" x="64.6684mm" y="0mm"/></g></svg>