<?xml version="1.0" encoding="UTF-8"?><svg xmlns="http://www.w3.org/2000/svg" height="4.9389mm" viewBox="0 0 9.8778 4.9389" width="9.8778mm"><g style="fill:black; stroke:none"><rect height="0.3528" width="0.3528" x="0.3528" y="0.3528"/><rect height="0.3528" width="0.3528" x="1.0583" y="0.3528"/><rect height="0.3528" width="0.3528" x="1.7639" y="0.3528"/><rect height="0.3528" width="0.3528" x="2.4694" y="0.3528"/><rect height="0.3528" width="0.3528" x="3.175" y="0.3528"/><rect height="0.3528" width="0.3528" x="3.8806" y="0.3528"/><rect height="0.3528" width="0.3528" x="4.5861" y="0.3528"/><rect height="0.3528" width="0.3528" x="5.2917" y="0.3528"/><rect height="0.3528" width="0.3528" x="5.9972" y="0.3528"/><rect height="0.3528" width="0.3528" x="6.7028" y="0.3528"/><rect height="0.3528" width="0.3528" x="7.4083" y="0.3528"/><rect height="0.3528" width="0.3528" x="8.1139" y="0.3528"/><rect height="0.3528" width="0.3528" x="8.8194" y="0.3528"/><rect height="0.3528" width="0.3528" x="0.3528" y="0.7056"/><rect height="0.3528" width="0.3528" x="0.7056" y="0.7056"/><rect height="0.3528" width="0.3528" x="1.0583" y="0.7056"/><rect height="0.3528" width="0.3528" x="1.4111" y="0.7056"/><rect height="0.3528" width="0.3528" x="2.4694" y="0.7056"/><rect height="0.3528" width="0.3528" x="3.175" y="0.7056"/><rect height="0.3528" width="0.3528" x="4.2333" y="0.7056"/><rect height="0.3528" width="0.3528" x="4.9389" y="0.7056"/><rect height="0.3528" width="0.3528" x="5.2917" y="0.7056"/><rect height="0.3528" width="0.3528" x="5.6444" y="0.7056"/><rect height="0.3528" width="0.3528" x="6.35" y="0.7056"/><rect height="0.3528" width="0.3528" x="6.7028" y="0.7056"/><rect height="0.3528" width="0.3528" x="7.0556" y="0.7056"/><rect height="0.3528" width="0.3528" x="8.8194" y="0.7056"/><rect height="0.3528" width="0.3528" x="9.1722" y="0.7056"/><rect height="0.3528" width="0.3528" x="0.3528" y="1.0583"/><rect height="0.3528" width="0.3528" x="0.7056" y="1.0583"/><rect height="0.3528" width="0.3528" x="1.4111" y="1.0583"/><rect height="0.3528" width="0.3528" x="1.7639" y="1.0583"/><rect height="0.3528" width="0.3528" x="3.175" y="1.0583"/><rect height="0.3528" width="0.3528" x="3.8806" y="1.0583"/><rect height="0.3528" width="0.3528" x="4.5861" y="1.0583"/><rect height="0.3528" width="0.3528" x="4.9389" y="1.0583"/><rect height="0.3528" width="0.3528" x="5.6444" y="1.0583"/><rect height="0.3528" width="0.3528" x="6.35" y="1.0583"/><rect height="0.3528" width="0.3528" x="6.7028" y="1.0583"/><rect height="0.3528" width="0.3528" x="7.4083" y="1.0583"/><rect height="0.3528" width="0.3528" x="0.3528" y="1.4111"/><rect height="0.3528" width="0.3528" x="0.7056" y="1.4111"/><rect height="0.3528" width="0.3528" x="1.0583" y="1.4111"/><rect height="0.3528" width="0.3528" x="1.4111" y="1.4111"/><rect height="0.3528" width="0.3528" x="1.7639" y="1.4111"/><rect height="0.3528" width="0.3528" x="2.1167" y="1.4111"/><rect height="0.3528" width="0.3528" x="3.175" y="1.4111"/><rect height="0.3528" width="0.3528" x="3.5278" y="1.4111"/><rect height="0.3528" width="0.3528" x="4.2333" y="1.4111"/><rect height="0.3528" width="0.3528" x="4.5861" y="1.4111"/><rect height="0.3528" width="0.3528" x="5.2917" y="1.4111"/><rect height="0.3528" width="0.3528" x="6.35" y="1.4111"/><rect height="0.3528" width="0.3528" x="6.7028" y="1.4111"/><rect height="0.3528" width="0.3528" x="7.0556" y="1.4111"/><rect height="0.3528" width="0.3528" x="8.8194" y="1.4111"/><rect height="0.3528" width="0.3528" x="9.1722" y="1.4111"/><rect height="0.3528" width="0.3528" x="0.3528" y="1.7639"/><rect height="0.3528" width="0.3528" x="1.0583" y="1.7639"/><rect height="0.3528" width="0.3528" x="2.4694" y="1.7639"/><rect height="0.3528" width="0.3528" x="3.175" y="1.7639"/><rect height="0.3528" width="0.3528" x="3.8806" y="1.7639"/><rect height="0.3528" width="0.3528" x="4.2333" y="1.7639"/><rect height="0.3528" width="0.3528" x="5.2917" y="1.7639"/><rect height="0.3528" width="0.3528" x="5.6444" y="1.7639"/><rect height="0.3528" width="0.3528" x="6.35" y="1.7639"/><rect height="0.3528" width="0.3528" x="0.3528" y="2.1167"/><rect height="0.3528" width="0.3528" x="0.7056" y="2.1167"/><rect height="0.3528" width="0.3528" x="1.0583" y="2.1167"/><rect height="0.3528" width="0.3528" x="1.4111" y="2.1167"/><rect height="0.3528" width="0.3528" x="1.7639" y="2.1167"/><rect height="0.3528" width="0.3528" x="3.5278" y="2.1167"/><rect height="0.3528" width="0.3528" x="3.8806" y="2.1167"/><rect height="0.3528" width="0.3528" x="4.2333" y="2.1167"/><rect height="0.3528" width="0.3528" x="4.5861" y="2.1167"/><rect height="0.3528" width="0.3528" x="4.9389" y="2.1167"/><rect height="0.3528" width="0.3528" x="5.9972" y="2.1167"/><rect height="0.3528" width="0.3528" x="7.7611" y="2.1167"/><rect height="0.3528" width="0.3528" x="8.1139" y="2.1167"/><rect height="0.3528" width="0.3528" x="8.8194" y="2.1167"/><rect height="0.3528" width="0.3528" x="9.1722" y="2.1167"/><rect height="0.3528" width="0.3528" x="0.3528" y="2.4694"/><rect height="0.3528" width="0.3528" x="1.4111" y="2.4694"/><rect height="0.3528" width="0.3528" x="1.7639" y="2.4694"/><rect height="0.3528" width="0.3528" x="2.4694" y="2.4694"/><rect height="0.3528" width="0.3528" x="3.8806" y="2.4694"/><rect height="0.3528" width="0.3528" x="4.2333" y="2.4694"/><rect height="0.3528" width="0.3528" x="5.2917" y="2.4694"/><rect height="0.3528" width="0.3528" x="5.6444" y="2.4694"/><rect height="0.3528" width="0.3528" x="5.9972" y="2.4694"/><rect height="0.3528" width="0.3528" x="6.35" y="2.4694"/><rect height="0.3528" width="0.3528" x="7.0556" y="2.4694"/><rect height="0.3528" width="0.3528" x="7.4083" y="2.4694"/><rect height="0.3528" width="0.3528" x="8.1139" y="2.4694"/><rect height="0.3528" width="0.3528" x="0.3528" y="2.8222"/><rect height="0.3528" width="0.3528" x="0.7056" y="2.8222"/><rect height="0.3528" width="0.3528" x="1.7639" y="2.8222"/><rect height="0.3528" width="0.3528" x="2.1167" y="2.8222"/><rect height="0.3528" width="0.3528" x="2.4694" y="2.8222"/><rect height="0.3528" width="0.3528" x="3.175" y="2.8222"/><rect height="0.3528" width="0.3528" x="4.2333" y="2.8222"/><rect height="0.3528" width="0.3528" x="4.9389" y="2.8222"/><rect height="0.3528" width="0.3528" x="5.2917" y="2.8222"/><rect height="0.3528" width="0.3528" x="7.4083" y="2.8222"/><rect height="0.3528" width="0.3528" x="7.7611" y="2.8222"/><rect height="0.3528" width="0.3528" x="8.8194" y="2.8222"/><rect height="0.3528" width="0.3528" x="9.1722" y="2.8222"/><rect height="0.3528" width="0.3528" x="0.3528" y="3.175"/><rect height="0.3528" width="0.3528" x="0.7056" y="3.175"/><rect height="0.3528" width="0.3528" x="1.7639" y="3.175"/><rect height="0.3528" width="0.3528" x="2.1167" y="3.175"/><rect height="0.3528" width="0.3528" x="3.5278" y="3.175"/><rect height="0.3528" width="0.3528" x="5.6444" y="3.175"/><rect height="0.3528" width="0.3528" x="5.9972" y="3.175"/><rect height="0.3528" width="0.3528" x="6.35" y="3.175"/><rect height="0.3528" width="0.3528" x="6.7028" y="3.175"/><rect height="0.3528" width="0.3528" x="7.0556" y="3.175"/><rect height="0.3528" width="0.3528" x="7.4083" y="3.175"/><rect height="0.3528" width="0.3528" x="7.7611" y="3.175"/><rect height="0.3528" width="0.3528" x="8.1139" y="3.175"/><rect height="0.3528" width="0.3528" x="8.4667" y="3.175"/><rect height="0.3528" width="0.3528" x="0.3528" y="3.5278"/><rect height="0.3528" width="0.3528" x="1.0583" y="3.5278"/><rect height="0.3528" width="0.3528" x="1.7639" y="3.5278"/><rect height="0.3528" width="0.3528" x="2.1167" y="3.5278"/><rect height="0.3528" width="0.3528" x="2.4694" y="3.5278"/><rect height="0.3528" width="0.3528" x="3.175" y="3.5278"/><rect height="0.3528" width="0.3528" x="3.8806" y="3.5278"/><rect height="0.3528" width="0.3528" x="4.2333" y="3.5278"/><rect height="0.3528" width="0.3528" x="4.5861" y="3.5278"/><rect height="0.3528" width="0.3528" x="4.9389" y="3.5278"/><rect height="0.3528" width="0.3528" x="5.2917" y="3.5278"/><rect height="0.3528" width="0.3528" x="6.35" y="3.5278"/><rect height="0.3528" width="0.3528" x="7.0556" y="3.5278"/><rect height="0.3528" width="0.3528" x="7.4083" y="3.5278"/><rect height="0.3528" width="0.3528" x="7.7611" y="3.5278"/><rect height="0.3528" width="0.3528" x="9.1722" y="3.5278"/><rect height="0.3528" width="0.3528" x="0.3528" y="3.8806"/><rect height="0.3528" width="0.3528" x="1.0583" y="3.8806"/><rect height="0.3528" width="0.3528" x="1.4111" y="3.8806"/><rect height="0.3528" width="0.3528" x="2.1167" y="3.8806"/><rect height="0.3528" width="0.3528" x="2.8222" y="3.8806"/><rect height="0.3528" width="0.3528" x="3.175" y="3.8806"/><rect height="0.3528" width="0.3528" x="3.8806" y="3.8806"/><rect height="0.3528" width="0.3528" x="4.2333" y="3.8806"/><rect height="0.3528" width="0.3528" x="4.5861" y="3.8806"/><rect height="0.3528" width="0.3528" x="5.2917" y="3.8806"/><rect height="0.3528" width="0.3528" x="5.6444" y="3.8806"/><rect height="0.3528" width="0.3528" x="5.9972" y="3.8806"/><rect height="0.3528" width="0.3528" x="6.35" y="3.8806"/><rect height="0.3528" width="0.3528" x="7.4083" y="3.8806"/><rect height="0.3528" width="0.3528" x="8.4667" y="3.8806"/><rect height="0.3528" width="0.3528" x="8.8194" y="3.8806"/><rect height="0.3528" width="0.3528" x="0.3528" y="4.2333"/><rect height="0.3528" width="0.3528" x="0.7056" y="4.2333"/><rect height="0.3528" width="0.3528" x="1.0583" y="4.2333"/><rect height="0.3528" width="0.3528" x="1.4111" y="4.2333"/><rect height="0.3528" width="0.3528" x="1.7639" y="4.2333"/><rect height="0.3528" width="0.3528" x="2.1167" y="4.2333"/><rect height="0.3528" width="0.3528" x="2.4694" y="4.2333"/><rect height="0.3528" width="0.3528" x="2.8222" y="4.2333"/><rect height="0.3528" width="0.3528" x="3.175" y="4.2333"/><rect height="0.3528" width="0.3528" x="3.5278" y="4.2333"/><rect height="0.3528" width="0.3528" x="3.8806" y="4.2333"/><rect height="0.3528" width="0.3528" x="4.2333" y="4.2333"/><rect height="0.3528" width="0.3528" x="4.5861" y="4.2333"/><rect height="0.3528" width="0.3528" x="4.9389" y="4.2333"/><rect height="0.3528" width="0.3528" x="5.2917" y="4.2333"/><rect height="0.3528" width="0.3528" x="5.6444" y="4.2333"/><rect height="0.3528" width="0.3528" x="5.9972" y="4.2333"/><rect height="0.3528" width="0.3528" x="6.35" y="4.2333"/><rect height="0.3528" width="0.3528" x="6.7028" y="4.2333"/><rect height="0.3528" width="0.3528" x="7.0556" y="4.2333"/><rect height="0.3528" width="0.3528" x="7.4083" y="4.2333"/><rect height="0.3528" width="0.3528" x="7.7611" y="4.2333"/><rect height="0.3528" width="0.3528" x="8.1139" y="4.2333"/><rect height="0.3528" width="0.3528" x="8.4667" y="4.2333"/><rect height="0.3528" width="0.3528" x="8.8194" y="4.2333"/><rect height="0.3528" width="0.3528" x="9.1722" y="4.2333"/></g></svg>