<?xml version="1.0" encoding="UTF-8"?><svg xmlns="http://www.w3.org/2000/svg" height="15.5222mm" viewBox="0 0 43.3917 15.5222" width="43.3917mm"><g style="fill:black; stroke:none"><rect height="1.0583" width="2.8222" x="3.5278" y="3.5278"/><rect height="1.0583" width="0.3528" x="6.7028" y="3.5278"/><rect height="1.0583" width="0.3528" x="7.4083" y="3.5278"/><rect height="1.0583" width="0.3528" x="8.1139" y="3.5278"/><rect height="1.0583" width="1.7639" x="9.525" y="3.5278"/><rect height="1.0583" width="0.3528" x="11.6417" y="3.5278"/><rect height="1.0583" width="0.3528" x="12.3472" y="3.5278"/><rect height="1.0583" width="1.7639" x="13.0528" y="3.5278"/><rect height="1.0583" width="1.4111" x="15.5222" y="3.5278"/><rect height="1.0583" width="0.3528" x="17.2861" y="3.5278"/><rect height="1.0583" width="0.7056" x="17.9917" y="3.5278"/><rect height="1.0583" width="1.7639" x="19.05" y="3.5278"/><rect height="1.0583" width="1.0583" x="21.5194" y="3.5278"/><rect height="1.0583" width="0.3528" x="22.9306" y="3.5278"/><rect height="1.0583" width="0.7056" x="23.9889" y="3.5278"/><rect height="1.0583" width="1.4111" x="25.7528" y="3.5278"/><rect height="1.0583" width="1.4111" x="27.5167" y="3.5278"/><rect height="1.0583" width="0.3528" x="29.2806" y="3.5278"/><rect height="1.0583" width="0.3528" x="29.9861" y="3.5278"/><rect height="1.0583" width="1.4111" x="30.6917" y="3.5278"/><rect height="1.0583" width="2.4694" x="33.5139" y="3.5278"/><rect height="1.0583" width="0.3528" x="36.3361" y="3.5278"/><rect height="1.0583" width="0.3528" x="37.7472" y="3.5278"/><rect height="1.0583" width="0.3528" x="38.4528" y="3.5278"/><rect height="1.0583" width="0.3528" x="39.5111" y="3.5278"/><rect height="1.0583" width="2.8222" x="3.5278" y="4.5861"/><rect height="1.0583" width="0.3528" x="6.7028" y="4.5861"/><rect height="1.0583" width="0.3528" x="7.4083" y="4.5861"/><rect height="1.0583" width="0.3528" x="8.1139" y="4.5861"/><rect height="1.0583" width="2.1167" x="9.525" y="4.5861"/><rect height="1.0583" width="0.3528" x="11.9944" y="4.5861"/><rect height="1.0583" width="0.3528" x="12.7" y="4.5861"/><rect height="1.0583" width="1.0583" x="13.4056" y="4.5861"/><rect height="1.0583" width="1.4111" x="15.5222" y="4.5861"/><rect height="1.0583" width="0.3528" x="17.2861" y="4.5861"/><rect height="1.0583" width="0.7056" x="17.9917" y="4.5861"/><rect height="1.0583" width="0.7056" x="19.4028" y="4.5861"/><rect height="1.0583" width="1.4111" x="21.5194" y="4.5861"/><rect height="1.0583" width="0.3528" x="23.2833" y="4.5861"/><rect height="1.0583" width="0.3528" x="24.3417" y="4.5861"/><rect height="1.0583" width="0.3528" x="26.1056" y="4.5861"/><rect height="1.0583" width="1.4111" x="27.5167" y="4.5861"/><rect height="1.0583" width="0.3528" x="29.2806" y="4.5861"/><rect height="1.0583" width="0.3528" x="29.9861" y="4.5861"/><rect height="1.0583" width="0.3528" x="31.0444" y="4.5861"/><rect height="1.0583" width="2.4694" x="33.5139" y="4.5861"/><rect height="1.0583" width="0.3528" x="36.3361" y="4.5861"/><rect height="1.0583" width="0.3528" x="37.7472" y="4.5861"/><rect height="1.0583" width="0.3528" x="38.4528" y="4.5861"/><rect height="1.0583" width="0.3528" x="39.5111" y="4.5861"/><rect height="1.0583" width="2.8222" x="3.5278" y="5.6444"/><rect height="1.0583" width="0.3528" x="6.7028" y="5.6444"/><rect height="1.0583" width="0.3528" x="7.4083" y="5.6444"/><rect height="1.0583" width="0.3528" x="8.1139" y="5.6444"/><rect height="1.0583" width="1.0583" x="9.525" y="5.6444"/><rect height="1.0583" width="0.3528" x="10.9361" y="5.6444"/><rect height="1.0583" width="0.3528" x="11.6417" y="5.6444"/><rect height="1.0583" width="2.1167" x="12.3472" y="5.6444"/><rect height="1.0583" width="0.3528" x="15.5222" y="5.6444"/><rect height="1.0583" width="0.3528" x="16.2278" y="5.6444"/><rect height="1.0583" width="0.3528" x="17.6389" y="5.6444"/><rect height="1.0583" width="1.4111" x="19.7556" y="5.6444"/><rect height="1.0583" width="0.3528" x="21.5194" y="5.6444"/><rect height="1.0583" width="1.7639" x="22.5778" y="5.6444"/><rect height="1.0583" width="1.0583" x="25.0472" y="5.6444"/><rect height="1.0583" width="0.7056" x="26.4583" y="5.6444"/><rect height="1.0583" width="1.0583" x="27.5167" y="5.6444"/><rect height="1.0583" width="0.3528" x="28.9278" y="5.6444"/><rect height="1.0583" width="0.3528" x="29.6333" y="5.6444"/><rect height="1.0583" width="2.1167" x="30.3389" y="5.6444"/><rect height="1.0583" width="2.4694" x="33.5139" y="5.6444"/><rect height="1.0583" width="0.3528" x="36.3361" y="5.6444"/><rect height="1.0583" width="0.3528" x="37.7472" y="5.6444"/><rect height="1.0583" width="0.3528" x="38.4528" y="5.6444"/><rect height="1.0583" width="0.3528" x="39.5111" y="5.6444"/><rect height="1.0583" width="2.8222" x="3.5278" y="6.7028"/><rect height="1.0583" width="0.3528" x="6.7028" y="6.7028"/><rect height="1.0583" width="0.3528" x="7.4083" y="6.7028"/><rect height="1.0583" width="0.3528" x="8.1139" y="6.7028"/><rect height="1.0583" width="0.7056" x="9.525" y="6.7028"/><rect height="1.0583" width="0.3528" x="10.5833" y="6.7028"/><rect height="1.0583" width="1.4111" x="11.2889" y="6.7028"/><rect height="1.0583" width="1.7639" x="13.4056" y="6.7028"/><rect height="1.0583" width="0.7056" x="15.5222" y="6.7028"/><rect height="1.0583" width="0.7056" x="17.6389" y="6.7028"/><rect height="1.0583" width="0.3528" x="19.05" y="6.7028"/><rect height="1.0583" width="0.3528" x="19.7556" y="6.7028"/><rect height="1.0583" width="0.7056" x="21.5194" y="6.7028"/><rect height="1.0583" width="0.3528" x="23.9889" y="6.7028"/><rect height="1.0583" width="0.3528" x="24.6944" y="6.7028"/><rect height="1.0583" width="0.7056" x="25.7528" y="6.7028"/><rect height="1.0583" width="0.3528" x="27.5167" y="6.7028"/><rect height="1.0583" width="0.3528" x="28.2222" y="6.7028"/><rect height="1.0583" width="1.4111" x="28.9278" y="6.7028"/><rect height="1.0583" width="1.4111" x="31.0444" y="6.7028"/><rect height="1.0583" width="2.4694" x="33.5139" y="6.7028"/><rect height="1.0583" width="0.3528" x="36.3361" y="6.7028"/><rect height="1.0583" width="0.3528" x="37.7472" y="6.7028"/><rect height="1.0583" width="0.3528" x="38.4528" y="6.7028"/><rect height="1.0583" width="0.3528" x="39.5111" y="6.7028"/><rect height="1.0583" width="2.8222" x="3.5278" y="7.7611"/><rect height="1.0583" width="0.3528" x="6.7028" y="7.7611"/><rect height="1.0583" width="0.3528" x="7.4083" y="7.7611"/><rect height="1.0583" width="0.3528" x="8.1139" y="7.7611"/><rect height="1.0583" width="1.0583" x="9.525" y="7.7611"/><rect height="1.0583" width="0.3528" x="10.9361" y="7.7611"/><rect height="1.0583" width="1.0583" x="11.6417" y="7.7611"/><rect height="1.0583" width="0.7056" x="13.4056" y="7.7611"/><rect height="1.0583" width="0.7056" x="15.5222" y="7.7611"/><rect height="1.0583" width="0.3528" x="16.9333" y="7.7611"/><rect height="1.0583" width="1.7639" x="17.6389" y="7.7611"/><rect height="1.0583" width="1.0583" x="19.7556" y="7.7611"/><rect height="1.0583" width="1.0583" x="21.5194" y="7.7611"/><rect height="1.0583" width="0.7056" x="23.6361" y="7.7611"/><rect height="1.0583" width="1.0583" x="25.4" y="7.7611"/><rect height="1.0583" width="0.3528" x="26.8111" y="7.7611"/><rect height="1.0583" width="1.4111" x="27.5167" y="7.7611"/><rect height="1.0583" width="0.3528" x="29.2806" y="7.7611"/><rect height="1.0583" width="1.0583" x="29.9861" y="7.7611"/><rect height="1.0583" width="1.0583" x="31.75" y="7.7611"/><rect height="1.0583" width="2.4694" x="33.5139" y="7.7611"/><rect height="1.0583" width="0.3528" x="36.3361" y="7.7611"/><rect height="1.0583" width="0.3528" x="37.7472" y="7.7611"/><rect height="1.0583" width="0.3528" x="38.4528" y="7.7611"/><rect height="1.0583" width="0.3528" x="39.5111" y="7.7611"/><rect height="1.0583" width="2.8222" x="3.5278" y="8.8194"/><rect height="1.0583" width="0.3528" x="6.7028" y="8.8194"/><rect height="1.0583" width="0.3528" x="7.4083" y="8.8194"/><rect height="1.0583" width="0.3528" x="8.1139" y="8.8194"/><rect height="1.0583" width="1.4111" x="9.525" y="8.8194"/><rect height="1.0583" width="0.3528" x="11.2889" y="8.8194"/><rect height="1.0583" width="1.4111" x="11.9944" y="8.8194"/><rect height="1.0583" width="0.3528" x="13.7583" y="8.8194"/><rect height="1.0583" width="0.3528" x="15.5222" y="8.8194"/><rect height="1.0583" width="1.0583" x="16.2278" y="8.8194"/><rect height="1.0583" width="0.7056" x="18.3444" y="8.8194"/><rect height="1.0583" width="1.0583" x="19.7556" y="8.8194"/><rect height="1.0583" width="0.7056" x="21.5194" y="8.8194"/><rect height="1.0583" width="1.0583" x="22.5778" y="8.8194"/><rect height="1.0583" width="0.3528" x="23.9889" y="8.8194"/><rect height="1.0583" width="1.0583" x="25.4" y="8.8194"/><rect height="1.0583" width="1.4111" x="27.5167" y="8.8194"/><rect height="1.0583" width="0.3528" x="29.2806" y="8.8194"/><rect height="1.0583" width="1.4111" x="29.9861" y="8.8194"/><rect height="1.0583" width="0.3528" x="31.75" y="8.8194"/><rect height="1.0583" width="2.4694" x="33.5139" y="8.8194"/><rect height="1.0583" width="0.3528" x="36.3361" y="8.8194"/><rect height="1.0583" width="0.3528" x="37.7472" y="8.8194"/><rect height="1.0583" width="0.3528" x="38.4528" y="8.8194"/><rect height="1.0583" width="0.3528" x="39.5111" y="8.8194"/><rect height="1.0583" width="2.8222" x="3.5278" y="9.8778"/><rect height="1.0583" width="0.3528" x="6.7028" y="9.8778"/><rect height="1.0583" width="0.3528" x="7.4083" y="9.8778"/><rect height="1.0583" width="0.3528" x="8.1139" y="9.8778"/><rect height="1.0583" width="1.0583" x="9.525" y="9.8778"/><rect height="1.0583" width="0.3528" x="10.9361" y="9.8778"/><rect height="1.0583" width="1.0583" x="11.9944" y="9.8778"/><rect height="1.0583" width="1.7639" x="13.4056" y="9.8778"/><rect height="1.0583" width="0.7056" x="15.5222" y="9.8778"/><rect height="1.0583" width="0.7056" x="16.5806" y="9.8778"/><rect height="1.0583" width="0.3528" x="18.6972" y="9.8778"/><rect height="1.0583" width="0.3528" x="20.4611" y="9.8778"/><rect height="1.0583" width="0.3528" x="21.5194" y="9.8778"/><rect height="1.0583" width="0.7056" x="23.2833" y="9.8778"/><rect height="1.0583" width="0.7056" x="25.0472" y="9.8778"/><rect height="1.0583" width="0.3528" x="26.4583" y="9.8778"/><rect height="1.0583" width="0.7056" x="27.5167" y="9.8778"/><rect height="1.0583" width="0.3528" x="28.575" y="9.8778"/><rect height="1.0583" width="1.0583" x="29.6333" y="9.8778"/><rect height="1.0583" width="1.4111" x="31.0444" y="9.8778"/><rect height="1.0583" width="2.4694" x="33.5139" y="9.8778"/><rect height="1.0583" width="0.3528" x="36.3361" y="9.8778"/><rect height="1.0583" width="0.3528" x="37.7472" y="9.8778"/><rect height="1.0583" width="0.3528" x="38.4528" y="9.8778"/><rect height="1.0583" width="0.3528" x="39.5111" y="9.8778"/><rect height="1.0583" width="2.8222" x="3.5278" y="10.9361"/><rect height="1.0583" width="0.3528" x="6.7028" y="10.9361"/><rect height="1.0583" width="0.3528" x="7.4083" y="10.9361"/><rect height="1.0583" width="0.3528" x="8.1139" y="10.9361"/><rect height="1.0583" width="0.3528" x="9.525" y="10.9361"/><rect height="1.0583" width="0.3528" x="10.2306" y="10.9361"/><rect height="1.0583" width="1.7639" x="10.9361" y="10.9361"/><rect height="1.0583" width="0.7056" x="14.1111" y="10.9361"/><rect height="1.0583" width="0.7056" x="15.5222" y="10.9361"/><rect height="1.0583" width="0.3528" x="16.9333" y="10.9361"/><rect height="1.0583" width="1.4111" x="17.6389" y="10.9361"/><rect height="1.0583" width="0.7056" x="20.1083" y="10.9361"/><rect height="1.0583" width="1.7639" x="21.5194" y="10.9361"/><rect height="1.0583" width="0.3528" x="23.6361" y="10.9361"/><rect height="1.0583" width="0.3528" x="24.3417" y="10.9361"/><rect height="1.0583" width="0.7056" x="25.7528" y="10.9361"/><rect height="1.0583" width="0.3528" x="27.5167" y="10.9361"/><rect height="1.0583" width="0.3528" x="28.2222" y="10.9361"/><rect height="1.0583" width="2.1167" x="28.9278" y="10.9361"/><rect height="1.0583" width="1.0583" x="31.3972" y="10.9361"/><rect height="1.0583" width="2.4694" x="33.5139" y="10.9361"/><rect height="1.0583" width="0.3528" x="36.3361" y="10.9361"/><rect height="1.0583" width="0.3528" x="37.7472" y="10.9361"/><rect height="1.0583" width="0.3528" x="38.4528" y="10.9361"/><rect height="1.0583" width="0.3528" x="39.5111" y="10.9361"/></g></svg>