<?xml version="1.0" encoding="UTF-8"?><svg xmlns="http://www.w3.org/2000/svg" height="8.85mm" viewBox="0 0 47.99 8.85" width="47.99mm"><g style="fill:black; stroke:none"><rect height="3.05" width="0.53" x="2" y="2"/><rect height="4.85" width="0.53" x="3.06" y="2"/><rect height="1.25" width="0.53" x="4.12" y="3.8"/><rect height="4.85" width="0.53" x="5.18" y="2"/><rect height="1.25" width="0.53" x="6.24" y="3.8"/><rect height="4.85" width="0.53" x="7.3" y="2"/><rect height="3.05" width="0.53" x="8.36" y="3.8"/><rect height="1.25" width="0.53" x="9.42" y="3.8"/><rect height="3.05" width="0.53" x="10.48" y="2"/><rect height="3.05" width="0.53" x="11.54" y="3.8"/><rect height="1.25" width="0.53" x="12.6" y="3.8"/><rect height="3.05" width="0.53" x="13.66" y="2"/><rect height="4.85" width="0.53" x="14.72" y="2"/><rect height="3.05" width="0.53" x="15.78" y="3.8"/><rect height="1.25" width="0.53" x="16.84" y="3.8"/><rect height="4.85" width="0.53" x="17.9" y="2"/><rect height="3.05" width="0.53" x="18.96" y="2"/><rect height="4.85" width="0.53" x="20.02" y="2"/><rect height="1.25" width="0.53" x="21.08" y="3.8"/><rect height="3.05" width="0.53" x="22.14" y="2"/><rect height="3.05" width="0.53" x="23.2" y="3.8"/><rect height="1.25" width="0.53" x="24.26" y="3.8"/><rect height="4.85" width="0.53" x="25.32" y="2"/><rect height="3.05" width="0.53" x="26.38" y="2"/><rect height="3.05" width="0.53" x="27.44" y="3.8"/><rect height="1.25" width="0.53" x="28.5" y="3.8"/><rect height="3.05" width="0.53" x="29.56" y="3.8"/><rect height="3.05" width="0.53" x="30.62" y="2"/><rect height="4.85" width="0.53" x="31.68" y="2"/><rect height="3.05" width="0.53" x="32.74" y="3.8"/><rect height="3.05" width="0.53" x="33.8" y="2"/><rect height="3.05" width="0.53" x="34.86" y="3.8"/><rect height="3.05" width="0.53" x="35.92" y="2"/><rect height="3.05" width="0.53" x="36.98" y="2"/><rect height="3.05" width="0.53" x="38.04" y="3.8"/><rect height="3.05" width="0.53" x="39.1" y="3.8"/><rect height="3.05" width="0.53" x="40.16" y="2"/><rect height="3.05" width="0.53" x="41.22" y="3.8"/><rect height="4.85" width="0.53" x="42.28" y="2"/><rect height="1.25" width="0.53" x="43.34" y="3.8"/><rect height="3.05" width="0.53" x="44.4" y="2"/><rect height="4.85" width="0.53" x="45.46" y="2"/></g></svg>