<?xml version="1.0" encoding="iso-8859-1"?>
<!DOCTYPE svg PUBLIC "-//W3C//DTD SVG 20000303 Stylable//EN" "http://www.w3.org/TR/2000/03/WD-SVG-20000303/DTD/svg-20000303-stylable.dtd">
<svg xml:space="preserve" width="4.84434in" height="1.75676in" style="shape-rendering:geometricPrecision; text-rendering:geometricPrecision; image-rendering:optimizeQuality"
     viewBox="-9853 0 12305 4462">
 <g>
   <g style="fill:#131516">
    <rect x="-9853" y="0" width="432" height="2400"/>
    <rect x="-9205" y="0" width="216" height="2400"/>
    <rect x="-8558" y="0" width="216" height="2400"/>
    <rect x="-7479" y="0" width="216" height="2400"/>
    <rect x="-6615" y="0" width="216" height="2400"/>
    <rect x="-6183" y="0" width="432" height="2400"/>
    <rect x="-5104" y="0" width="432" height="2400"/>
    <rect x="-4240" y="0" width="216" height="2400"/>
    <rect x="-3593" y="0" width="648" height="2400"/>
    <rect x="-2729" y="0" width="216" height="2400"/>
    <rect x="-2298" y="0" width="432" height="2400"/>
    <rect x="-1650" y="0" width="648" height="2400"/>
    <rect x="-355" y="0" width="863" height="2400"/>
    <rect x="725" y="0" width="216" height="2400"/>
    <rect x="1588" y="0" width="216" height="2400"/>
    <rect x="2020" y="0" width="432" height="2400"/>
   </g>
   <path style="fill:#1F1A17" d="M-9608 3656l0 566 460 0c67,0 124,-23 171,-70 48,-47 71,-103 71,-169l0 -86c0,-66 -23,-122 -71,-170 -48,-47 -105,-71 -171,-71l-460 0zm0 -804l0 565 460 0c67,0 124,-24 171,-71 48,-46 71,-103 71,-169l0 -85c0,-65 -23,-121 -71,-169 -48,-47 -105,-71 -171,-71l-460 0zm-239 -239l699 0c131,0 244,47 339,142 96,95 143,207 143,337l0 82c0,71 -15,139 -45,205 -30,67 -71,119 -121,157 53,50 94,106 123,168 29,62 43,126 43,193l0 83c0,132 -47,245 -142,340 -95,94 -208,142 -340,142l-699 0 0 -1849zm1750 1244c-29,0 -56,12 -79,35 -23,24 -35,51 -35,82l0 134c0,31 12,57 34,80 23,23 51,34 83,34l319 0 258 -144 -3 -106c0,-33 -12,-60 -35,-82 -23,-22 -50,-33 -82,-33l-460 0zm15 -742l424 0c97,0 180,33 248,100 69,67 105,151 109,253l32 858 0 5c0,37 -12,68 -34,93 -23,26 -51,38 -83,38 -33,0 -61,-10 -82,-31 -22,-21 -35,-51 -41,-89l-139 88c-15,9 -32,17 -52,23 -20,6 -38,9 -54,9l-340 0c-98,0 -183,-35 -252,-104 -70,-69 -105,-152 -105,-250l0 -134c0,-97 35,-181 106,-251 71,-70 155,-105 251,-105l457 0c20,0 38,1 55,5 17,3 34,8 49,14l-8 -169c-2,-34 -13,-61 -34,-82 -22,-21 -49,-32 -83,-32l-424 0c-40,0 -72,-10 -95,-32 -22,-21 -34,-51 -34,-88 0,-35 12,-64 36,-86 23,-23 54,-33 93,-33zm1268 132l0 125 199 -174c30,-26 65,-46 107,-61 41,-15 81,-22 121,-22l158 0c97,0 181,34 251,104 70,70 106,153 106,249l0 55c0,40 -11,72 -34,97 -22,24 -51,37 -86,37 -36,0 -64,-13 -87,-38 -22,-25 -33,-57 -33,-96l0 -55c0,-30 -12,-57 -35,-81 -23,-24 -51,-36 -82,-36l-158 0c-12,0 -28,4 -45,11 -17,7 -30,15 -40,24l-342 303 0 639c0,40 -11,73 -34,97 -22,25 -51,37 -86,37 -35,0 -64,-12 -87,-38 -22,-25 -33,-57 -33,-96l0 -1081c0,-41 11,-73 33,-97 22,-24 51,-35 87,-35 35,0 64,12 86,37 23,24 34,56 34,95zm1727 -132l478 0c39,0 70,11 96,34 25,23 37,51 37,85 0,36 -12,65 -35,86 -24,21 -57,31 -98,31l-478 0c-14,0 -28,3 -41,9 -13,7 -27,16 -42,29l-213 185c-10,9 -18,20 -25,35 -6,15 -10,30 -10,45l0 266c0,15 4,31 10,46 7,16 15,28 24,36l216 187c16,13 31,22 43,26 12,5 25,7 38,7l478 0c39,0 72,11 96,34 25,22 37,51 37,86 0,35 -12,64 -37,87 -26,22 -57,33 -96,33l-478 0c-40,0 -81,-8 -124,-23 -42,-15 -78,-35 -106,-59l-215 -190c-41,-36 -72,-77 -93,-124 -22,-46 -32,-95 -32,-146l0 -263c0,-51 10,-99 32,-146 21,-47 52,-89 93,-125l215 -188c28,-25 64,-45 106,-61 43,-15 84,-22 124,-22zm1372 236c-12,0 -25,3 -37,8 -13,5 -25,12 -38,22l-102 85c-13,10 -24,23 -31,40 -9,16 -12,32 -12,49l0 468c0,17 3,33 12,49 7,16 18,29 31,39l103 86c11,9 23,15 35,19 13,4 26,6 39,6l262 0c13,0 26,-2 39,-7 13,-4 25,-11 36,-19l101 -85c13,-10 23,-22 31,-39 9,-17 13,-33 13,-49l0 -468c0,-17 -4,-33 -12,-49 -8,-17 -18,-30 -30,-39l-104 -86c-13,-10 -25,-17 -37,-22 -13,-5 -25,-8 -37,-8l-262 0zm-3 -236l265 0c40,0 79,7 119,21 39,15 76,35 109,62l103 83c39,32 70,73 94,122 23,49 35,100 35,152l0 468c0,51 -12,101 -35,149 -23,48 -54,89 -94,121l-103 87c-33,26 -70,46 -109,61 -40,14 -79,21 -119,21l-265 0c-40,0 -79,-7 -117,-21 -38,-14 -74,-34 -109,-61l-103 -87c-40,-32 -71,-73 -94,-121 -23,-48 -34,-98 -34,-149l0 -468c0,-52 11,-103 34,-152 23,-49 54,-90 94,-122l103 -83c35,-28 71,-49 109,-63 38,-13 77,-20 117,-20zm1404 239c-25,0 -50,11 -78,32 -2,1 -3,2 -4,3l-79 63c-10,8 -19,20 -25,34 -7,16 -10,30 -10,45l0 512c0,15 3,31 10,47 6,16 15,27 25,35l79 63c1,1 2,2 3,2 28,22 54,32 79,32l185 0c15,0 28,-3 42,-8 13,-5 27,-15 42,-26l202 -165c9,-8 17,-19 23,-35 6,-15 9,-32 9,-49l0 -305c0,-16 -3,-32 -9,-48 -6,-15 -14,-26 -23,-34l-202 -163c-14,-12 -27,-21 -40,-26 -13,-6 -27,-9 -44,-9l-185 0zm746 -608l0 1582c0,39 -12,71 -35,96 -23,26 -53,38 -88,38 -36,0 -65,-12 -87,-36 -22,-24 -33,-57 -33,-98l0 -26 -89 78c-30,26 -65,46 -105,61 -40,14 -82,21 -124,21l-185 0c-40,0 -80,-7 -119,-21 -39,-14 -75,-34 -109,-61l-82 -63c-39,-30 -71,-71 -94,-120 -23,-50 -35,-102 -35,-154l0 -520c0,-47 13,-95 37,-145 25,-50 55,-89 92,-117l82 -63c35,-28 71,-49 109,-63 38,-13 78,-20 119,-20l185 0c42,0 84,7 124,22 40,15 75,35 105,61l89 77 0 -529c0,-39 11,-71 33,-96 23,-25 52,-37 87,-37 35,0 65,12 88,37 23,24 35,56 35,96zm732 605c-12,0 -25,3 -37,8 -13,5 -25,12 -38,21l-102 86c-13,10 -24,23 -31,39 -9,17 -12,33 -12,50l0 161 702 0 0 -161c0,-17 -4,-33 -12,-50 -8,-16 -18,-29 -30,-38l-104 -87c-13,-9 -25,-16 -37,-21 -13,-5 -25,-8 -38,-8l-261 0zm-3 -236l264 0c41,0 80,7 120,21 39,15 76,35 109,62l103 83c39,32 70,73 94,122 23,49 35,100 35,152l0 285c0,35 -13,63 -38,86 -25,23 -57,34 -96,34l-808 0 0 63c0,17 3,33 12,48 7,17 18,30 31,40l102 86c11,9 22,15 34,19 11,4 25,6 41,6l588 0c40,0 72,11 96,34 25,22 38,51 38,86 0,35 -13,64 -38,87 -25,22 -57,33 -96,33l-591 0c-40,0 -79,-7 -117,-21 -38,-14 -74,-34 -109,-61l-103 -87c-40,-32 -71,-73 -94,-121 -23,-48 -34,-98 -34,-149l0 -468c0,-52 11,-103 34,-152 23,-49 54,-90 94,-122l103 -83c35,-28 71,-49 109,-63 38,-13 77,-20 117,-20zm1268 -369l0 874 465 0 0 -673c0,-41 11,-74 33,-98 22,-25 51,-37 87,-37 34,0 63,12 86,38 22,25 34,57 34,97l0 673c34,3 63,15 85,38 23,22 35,50 35,82 0,31 -11,59 -33,80 -22,22 -51,35 -87,40l0 468c0,40 -11,73 -33,97 -23,25 -52,37 -87,37 -35,0 -64,-12 -87,-38 -22,-25 -33,-57 -33,-96l0 -468 -705 0 0 -1114c0,-41 11,-73 33,-97 22,-24 51,-36 87,-36 34,0 63,12 86,37 22,25 34,57 34,96zm2019 0l0 1356c0,99 -36,184 -108,254 -71,71 -156,106 -255,106l-222 0c-101,0 -186,-35 -257,-105 -71,-70 -106,-155 -106,-255l0 -351c0,-41 11,-73 33,-96 22,-23 51,-35 87,-35 35,0 65,12 88,37 23,24 35,56 35,94l0 351c0,34 12,62 36,86 23,23 51,34 84,34l222 0c32,0 60,-12 86,-36 25,-24 37,-52 37,-84l0 -1356c0,-41 11,-73 33,-97 22,-24 51,-36 87,-36 34,0 63,12 86,37 22,25 34,57 34,96z"/>
 </g>
</svg>
